<?xml version="1.0" encoding="UTF-8" standalone="no"?>
<!DOCTYPE svg PUBLIC "-//W3C//DTD SVG 1.1//EN"
 "http://www.w3.org/Graphics/SVG/1.1/DTD/svg11.dtd">
<!-- Generated by graphviz version 12.1.0 (20240811.2233)
 -->
<!-- Pages: 1 -->
<svg width="176pt" height="133pt"
 viewBox="0.00 0.00 175.55 132.50" xmlns="http://www.w3.org/2000/svg" xmlns:xlink="http://www.w3.org/1999/xlink">
<g id="graph0" class="graph" transform="scale(1 1) rotate(0) translate(4 128.5)">
<polygon fill="white" stroke="none" points="-4,4 -4,-128.5 171.55,-128.5 171.55,4 -4,4"/>
<!-- 1 -->
<g id="node1" class="node">
<title>1</title>
<ellipse fill="none" stroke="#ff5733" cx="27.81" cy="-106.5" rx="27.81" ry="18"/>
<text text-anchor="middle" x="27.81" y="-101.45" font-family="Times,serif" font-size="14.00">Cars</text>
</g>
<!-- 2 -->
<g id="node2" class="node">
<title>2</title>
<ellipse fill="none" stroke="#c70039" cx="73.81" cy="-18" rx="39.07" ry="18"/>
<text text-anchor="middle" x="73.81" y="-12.95" font-family="Times,serif" font-size="14.00">Wheels</text>
</g>
<!-- 1&#45;&gt;2 -->
<g id="edge1" class="edge">
<title>1&#45;&gt;2</title>
<path fill="none" stroke="#ffc300" d="M36.46,-89.23C42.99,-76.94 52.1,-59.82 59.69,-45.56"/>
<polygon fill="#ffc300" stroke="#ffc300" points="62.57,-47.6 64.17,-37.12 56.38,-44.31 62.57,-47.6"/>
<text text-anchor="middle" x="67.68" y="-57.2" font-family="Times,serif" font-size="14.00">have</text>
</g>
<!-- 3 -->
<g id="node3" class="node">
<title>3</title>
<ellipse fill="none" stroke="#900c3f" cx="120.81" cy="-106.5" rx="46.75" ry="18"/>
<text text-anchor="middle" x="120.81" y="-101.45" font-family="Times,serif" font-size="14.00">Airplanes</text>
</g>
<!-- 3&#45;&gt;2 -->
<g id="edge2" class="edge">
<title>3&#45;&gt;2</title>
<path fill="none" stroke="#daf7a6" d="M111.52,-88.41C104.91,-76.25 95.9,-59.66 88.35,-45.76"/>
<polygon fill="#daf7a6" stroke="#daf7a6" points="91.49,-44.21 83.64,-37.09 85.34,-47.55 91.49,-44.21"/>
<text text-anchor="middle" x="114.27" y="-57.2" font-family="Times,serif" font-size="14.00">have</text>
</g>
</g>
</svg>
