<?xml version="1.0" encoding="UTF-8" standalone="no"?>
<!DOCTYPE svg PUBLIC "-//W3C//DTD SVG 1.1//EN"
 "http://www.w3.org/Graphics/SVG/1.1/DTD/svg11.dtd">
<!-- Generated by graphviz version 2.50.0 (0)
 -->
<!-- Pages: 1 -->
<svg width="683pt" height="305pt"
 viewBox="0.00 0.00 683.33 305.00" xmlns="http://www.w3.org/2000/svg" xmlns:xlink="http://www.w3.org/1999/xlink">
<g id="graph0" class="graph" transform="scale(1 1) rotate(0) translate(4 301)">
<polygon fill="white" stroke="transparent" points="-4,4 -4,-301 679.33,-301 679.33,4 -4,4"/>
<!-- 1 -->
<g id="node1" class="node">
<title>1</title>
<ellipse fill="none" stroke="blue" cx="83.33" cy="-279" rx="27" ry="18"/>
<text text-anchor="middle" x="83.33" y="-275.3" font-family="Times,serif" font-size="14.00">Cars</text>
</g>
<!-- 3 -->
<g id="node3" class="node">
<title>3</title>
<ellipse fill="none" stroke="orange" cx="242.33" cy="-192" rx="37.89" ry="18"/>
<text text-anchor="middle" x="242.33" y="-188.3" font-family="Times,serif" font-size="14.00">Wheels</text>
</g>
<!-- 1&#45;&gt;3 -->
<g id="edge1" class="edge">
<title>1&#45;&gt;3</title>
<path fill="none" stroke="black" d="M103.79,-267.06C130.44,-252.82 177.34,-227.74 209.12,-210.76"/>
<polygon fill="black" stroke="black" points="210.88,-213.78 218.05,-205.98 207.58,-207.61 210.88,-213.78"/>
<text text-anchor="middle" x="183.33" y="-231.8" font-family="Times,serif" font-size="14.00">Has</text>
</g>
<!-- 4 -->
<g id="node4" class="node">
<title>4</title>
<ellipse fill="none" stroke="red" cx="103.33" cy="-105" rx="64.99" ry="18"/>
<text text-anchor="middle" x="103.33" y="-101.3" font-family="Times,serif" font-size="14.00">Rubber Wheels</text>
</g>
<!-- 1&#45;&gt;4 -->
<g id="edge5" class="edge">
<title>1&#45;&gt;4</title>
<path fill="none" stroke="black" d="M84.44,-260.66C85.85,-239.98 88.56,-204.4 92.33,-174 94.01,-160.51 96.36,-145.59 98.47,-133.17"/>
<polygon fill="black" stroke="black" points="101.97,-133.45 100.23,-123 95.07,-132.25 101.97,-133.45"/>
<text text-anchor="middle" x="143.83" y="-188.3" font-family="Times,serif" font-size="14.00">Common Material</text>
</g>
<!-- 7 -->
<g id="node7" class="node">
<title>7</title>
<ellipse fill="none" stroke="purple" cx="277.33" cy="-18" rx="32.49" ry="18"/>
<text text-anchor="middle" x="277.33" y="-14.3" font-family="Times,serif" font-size="14.00">Speed</text>
</g>
<!-- 1&#45;&gt;7 -->
<g id="edge12" class="edge">
<title>1&#45;&gt;7</title>
<path fill="none" stroke="black" d="M69.5,-263.32C50.25,-241.78 16.31,-199.44 3.33,-156 -6.04,-124.6 6.26,-110.28 29.33,-87 84.1,-31.74 179.23,-20.2 234.39,-18.47"/>
<polygon fill="black" stroke="black" points="234.61,-21.97 244.53,-18.25 234.46,-14.97 234.61,-21.97"/>
<text text-anchor="middle" x="47.33" y="-144.8" font-family="Times,serif" font-size="14.00">Achieves Speed</text>
</g>
<!-- 2 -->
<g id="node2" class="node">
<title>2</title>
<ellipse fill="none" stroke="green" cx="356.33" cy="-279" rx="33.29" ry="18"/>
<text text-anchor="middle" x="356.33" y="-275.3" font-family="Times,serif" font-size="14.00">Trains</text>
</g>
<!-- 2&#45;&gt;3 -->
<g id="edge2" class="edge">
<title>2&#45;&gt;3</title>
<path fill="none" stroke="black" d="M337.51,-263.96C319.17,-250.29 291.06,-229.33 270.14,-213.74"/>
<polygon fill="black" stroke="black" points="272.06,-210.8 261.95,-207.63 267.88,-216.41 272.06,-210.8"/>
<text text-anchor="middle" x="316.33" y="-231.8" font-family="Times,serif" font-size="14.00">Has</text>
</g>
<!-- 5 -->
<g id="node5" class="node">
<title>5</title>
<ellipse fill="none" stroke="gray" cx="317.33" cy="-105" rx="56.59" ry="18"/>
<text text-anchor="middle" x="317.33" y="-101.3" font-family="Times,serif" font-size="14.00">Steel Wheels</text>
</g>
<!-- 2&#45;&gt;5 -->
<g id="edge6" class="edge">
<title>2&#45;&gt;5</title>
<path fill="none" stroke="black" d="M357.34,-260.92C358.3,-234.35 357.79,-181.93 342.33,-141 341.02,-137.51 339.26,-134.05 337.29,-130.74"/>
<polygon fill="black" stroke="black" points="340.19,-128.78 331.72,-122.42 334.37,-132.68 340.19,-128.78"/>
<text text-anchor="middle" x="406.83" y="-188.3" font-family="Times,serif" font-size="14.00">Common Material</text>
</g>
<!-- 2&#45;&gt;7 -->
<g id="edge13" class="edge">
<title>2&#45;&gt;7</title>
<path fill="none" stroke="black" d="M389.42,-277.71C436.27,-275.34 520.86,-263.39 562.33,-210 595.91,-166.78 593.81,-135.44 568.33,-87 556.28,-64.09 544.44,-63.43 520.33,-54 453.62,-27.92 369.78,-21 320.05,-19.32"/>
<polygon fill="black" stroke="black" points="320.07,-15.82 309.97,-19.04 319.87,-22.82 320.07,-15.82"/>
<text text-anchor="middle" x="631.33" y="-144.8" font-family="Times,serif" font-size="14.00">Achieves Speed</text>
</g>
<!-- 3&#45;&gt;4 -->
<g id="edge3" class="edge">
<title>3&#45;&gt;4</title>
<path fill="none" stroke="black" d="M212.11,-181.03C204.98,-178.71 197.39,-176.25 190.33,-174 164.62,-165.81 153.44,-172.83 132.33,-156 124.5,-149.75 118.36,-140.77 113.79,-132.14"/>
<polygon fill="black" stroke="black" points="116.92,-130.56 109.44,-123.05 110.6,-133.58 116.92,-130.56"/>
<text text-anchor="middle" x="155.83" y="-144.8" font-family="Times,serif" font-size="14.00">Material</text>
</g>
<!-- 3&#45;&gt;5 -->
<g id="edge4" class="edge">
<title>3&#45;&gt;5</title>
<path fill="none" stroke="black" d="M214.64,-179.71C195.64,-170.31 175.79,-156.06 187.33,-141 196.21,-129.42 227.36,-120.8 256.95,-115.02"/>
<polygon fill="black" stroke="black" points="257.69,-118.44 266.88,-113.17 256.41,-111.56 257.69,-118.44"/>
<text text-anchor="middle" x="210.83" y="-144.8" font-family="Times,serif" font-size="14.00">Material</text>
</g>
<!-- 4&#45;&gt;7 -->
<g id="edge10" class="edge">
<title>4&#45;&gt;7</title>
<path fill="none" stroke="black" d="M99.53,-86.75C98.23,-76.09 98.7,-62.8 106.33,-54 122.82,-34.99 189.87,-25.92 234.95,-21.89"/>
<polygon fill="black" stroke="black" points="235.38,-25.36 245.05,-21.03 234.79,-18.39 235.38,-25.36"/>
<text text-anchor="middle" x="188.33" y="-57.8" font-family="Times,serif" font-size="14.00">Limits Speed Due To Friction</text>
</g>
<!-- 5&#45;&gt;7 -->
<g id="edge11" class="edge">
<title>5&#45;&gt;7</title>
<path fill="none" stroke="black" d="M293.71,-88.33C287.58,-82.98 281.74,-76.44 278.33,-69 275.1,-61.95 274,-53.72 273.94,-46.01"/>
<polygon fill="black" stroke="black" points="277.44,-46.11 274.4,-35.96 270.45,-45.79 277.44,-46.11"/>
<text text-anchor="middle" x="389.83" y="-57.8" font-family="Times,serif" font-size="14.00">Allows Higher Speed With Less Friction</text>
</g>
<!-- 6 -->
<g id="node6" class="node">
<title>6</title>
<ellipse fill="none" stroke="yellow" cx="515.33" cy="-192" rx="38.19" ry="18"/>
<text text-anchor="middle" x="515.33" y="-188.3" font-family="Times,serif" font-size="14.00">Friction</text>
</g>
<!-- 6&#45;&gt;4 -->
<g id="edge7" class="edge">
<title>6&#45;&gt;4</title>
<path fill="none" stroke="black" d="M485.93,-180.21C478.62,-177.86 470.76,-175.6 463.33,-174 391.22,-158.46 370.91,-169.19 298.33,-156 284.52,-153.49 211.26,-134.44 158.59,-120.6"/>
<polygon fill="black" stroke="black" points="159.25,-117.15 148.69,-117.99 157.47,-123.92 159.25,-117.15"/>
<text text-anchor="middle" x="340.83" y="-144.8" font-family="Times,serif" font-size="14.00">Higher Friction</text>
</g>
<!-- 6&#45;&gt;5 -->
<g id="edge8" class="edge">
<title>6&#45;&gt;5</title>
<path fill="none" stroke="black" d="M484.75,-180.78C465.73,-174.2 440.88,-165.18 419.33,-156 397.5,-146.7 373.66,-135.1 354.52,-125.41"/>
<polygon fill="black" stroke="black" points="356.03,-122.25 345.54,-120.83 352.86,-128.49 356.03,-122.25"/>
<text text-anchor="middle" x="460.33" y="-144.8" font-family="Times,serif" font-size="14.00">Lower Friction</text>
</g>
<!-- 6&#45;&gt;7 -->
<g id="edge9" class="edge">
<title>6&#45;&gt;7</title>
<path fill="none" stroke="black" d="M519.44,-174.04C525.31,-145.21 532.26,-86.62 501.33,-54 477.24,-28.59 378.43,-21.59 320.41,-19.69"/>
<polygon fill="black" stroke="black" points="320.17,-16.18 310.07,-19.39 319.97,-23.18 320.17,-16.18"/>
<text text-anchor="middle" x="544.33" y="-101.3" font-family="Times,serif" font-size="14.00">Affects</text>
</g>
</g>
</svg>
