<?xml version="1.0" encoding="UTF-8" standalone="no"?>
<!DOCTYPE svg PUBLIC "-//W3C//DTD SVG 1.1//EN"
 "http://www.w3.org/Graphics/SVG/1.1/DTD/svg11.dtd">
<!-- Generated by graphviz version 2.50.0 (0)
 -->
<!-- Pages: 1 -->
<svg width="881pt" height="218pt"
 viewBox="0.00 0.00 881.08 218.00" xmlns="http://www.w3.org/2000/svg" xmlns:xlink="http://www.w3.org/1999/xlink">
<g id="graph0" class="graph" transform="scale(1 1) rotate(0) translate(4 214)">
<polygon fill="white" stroke="transparent" points="-4,4 -4,-214 877.08,-214 877.08,4 -4,4"/>
<!-- 1 -->
<g id="node1" class="node">
<title>1</title>
<ellipse fill="none" stroke="#ffd700" cx="696.84" cy="-105" rx="34.39" ry="18"/>
<text text-anchor="middle" x="696.84" y="-101.3" font-family="Times,serif" font-size="14.00">Stocks</text>
</g>
<!-- 6 -->
<g id="node6" class="node">
<title>6</title>
<ellipse fill="none" stroke="#4682b4" cx="459.84" cy="-18" rx="68.79" ry="18"/>
<text text-anchor="middle" x="459.84" y="-14.3" font-family="Times,serif" font-size="14.00">Housing Market</text>
</g>
<!-- 1&#45;&gt;6 -->
<g id="edge1" class="edge">
<title>1&#45;&gt;6</title>
<path fill="none" stroke="#ffa07a" d="M665.64,-97.36C641.32,-91.57 607.06,-82.05 578.84,-69 567.77,-63.88 566.76,-59.46 555.84,-54 542.18,-47.17 526.84,-40.97 512.51,-35.75"/>
<polygon fill="#ffa07a" stroke="#ffa07a" points="513.37,-32.35 502.77,-32.3 511.03,-38.94 513.37,-32.35"/>
<text text-anchor="middle" x="607.34" y="-57.8" font-family="Times,serif" font-size="14.00">Influences</text>
</g>
<!-- 7 -->
<g id="node7" class="node">
<title>7</title>
<ellipse fill="none" stroke="#6495ed" cx="752.84" cy="-18" rx="120.48" ry="18"/>
<text text-anchor="middle" x="752.84" y="-14.3" font-family="Times,serif" font-size="14.00">ETF (Exchange Traded Funds)</text>
</g>
<!-- 1&#45;&gt;7 -->
<g id="edge2" class="edge">
<title>1&#45;&gt;7</title>
<path fill="none" stroke="#ffa07a" d="M713.71,-89.02C719.64,-83.18 726.02,-76.17 730.84,-69 735.69,-61.81 739.88,-53.38 743.26,-45.51"/>
<polygon fill="#ffa07a" stroke="#ffa07a" points="746.61,-46.57 747.11,-35.98 740.12,-43.95 746.61,-46.57"/>
<text text-anchor="middle" x="758.84" y="-57.8" font-family="Times,serif" font-size="14.00">Affects</text>
</g>
<!-- 2 -->
<g id="node2" class="node">
<title>2</title>
<ellipse fill="none" stroke="#daa520" cx="133.84" cy="-105" rx="33.29" ry="18"/>
<text text-anchor="middle" x="133.84" y="-101.3" font-family="Times,serif" font-size="14.00">Bonds</text>
</g>
<!-- 2&#45;&gt;6 -->
<g id="edge3" class="edge">
<title>2&#45;&gt;6</title>
<path fill="none" stroke="#b0e0e6" d="M164.82,-98.26C213.79,-89.14 304.23,-72.05 310.84,-69 320.62,-64.5 320.23,-58.83 329.84,-54 349.86,-43.94 373.1,-36.51 394.35,-31.15"/>
<polygon fill="#b0e0e6" stroke="#b0e0e6" points="395.38,-34.5 404.28,-28.75 393.74,-27.7 395.38,-34.5"/>
<text text-anchor="middle" x="351.84" y="-57.8" font-family="Times,serif" font-size="14.00">Impacts</text>
</g>
<!-- 8 -->
<g id="node8" class="node">
<title>8</title>
<ellipse fill="none" stroke="#7b68ee" cx="70.84" cy="-18" rx="70.69" ry="18"/>
<text text-anchor="middle" x="70.84" y="-14.3" font-family="Times,serif" font-size="14.00">Corporate Bonds</text>
</g>
<!-- 2&#45;&gt;8 -->
<g id="edge4" class="edge">
<title>2&#45;&gt;8</title>
<path fill="none" stroke="#b0e0e6" d="M103.45,-97.65C76.58,-91.35 40.36,-80.92 31.84,-69 25.35,-59.9 30.14,-50.15 38.29,-41.7"/>
<polygon fill="#b0e0e6" stroke="#b0e0e6" points="40.69,-44.25 45.76,-34.95 35.99,-39.06 40.69,-44.25"/>
<text text-anchor="middle" x="60.34" y="-57.8" font-family="Times,serif" font-size="14.00">Influences</text>
</g>
<!-- 3 -->
<g id="node3" class="node">
<title>3</title>
<ellipse fill="none" stroke="#8b8000" cx="305.84" cy="-105" rx="68.79" ry="18"/>
<text text-anchor="middle" x="305.84" y="-101.3" font-family="Times,serif" font-size="14.00">Public Spending</text>
</g>
<!-- 3&#45;&gt;6 -->
<g id="edge5" class="edge">
<title>3&#45;&gt;6</title>
<path fill="none" stroke="#ffdead" d="M338.43,-88.97C350.9,-83.01 365.16,-75.93 377.84,-69 394.08,-60.13 411.65,-49.55 426.34,-40.42"/>
<polygon fill="#ffdead" stroke="#ffdead" points="428.47,-43.22 435.08,-34.94 424.75,-37.29 428.47,-43.22"/>
<text text-anchor="middle" x="422.34" y="-57.8" font-family="Times,serif" font-size="14.00">Boosts</text>
</g>
<!-- 3&#45;&gt;8 -->
<g id="edge6" class="edge">
<title>3&#45;&gt;8</title>
<path fill="none" stroke="#ffdead" d="M247.19,-95.51C194.44,-87.54 123.48,-75.84 111.84,-69 101.72,-63.05 93.03,-53.62 86.28,-44.54"/>
<polygon fill="#ffdead" stroke="#ffdead" points="89,-42.31 80.43,-36.07 83.24,-46.29 89,-42.31"/>
<text text-anchor="middle" x="160.34" y="-57.8" font-family="Times,serif" font-size="14.00">Adds Liquidity to</text>
</g>
<!-- 4 -->
<g id="node4" class="node">
<title>4</title>
<ellipse fill="none" stroke="#adff2f" cx="477.84" cy="-192" rx="59.29" ry="18"/>
<text text-anchor="middle" x="477.84" y="-188.3" font-family="Times,serif" font-size="14.00">Interest Rates</text>
</g>
<!-- 5 -->
<g id="node5" class="node">
<title>5</title>
<ellipse fill="none" stroke="#ff4500" cx="459.84" cy="-105" rx="40.89" ry="18"/>
<text text-anchor="middle" x="459.84" y="-101.3" font-family="Times,serif" font-size="14.00">Inflation</text>
</g>
<!-- 4&#45;&gt;5 -->
<g id="edge14" class="edge">
<title>4&#45;&gt;5</title>
<path fill="none" stroke="#e0ffff" d="M474.2,-173.8C471.74,-162.16 468.43,-146.55 465.61,-133.24"/>
<polygon fill="#e0ffff" stroke="#e0ffff" points="468.98,-132.23 463.48,-123.18 462.13,-133.68 468.98,-132.23"/>
<text text-anchor="middle" x="496.84" y="-144.8" font-family="Times,serif" font-size="14.00">Dampens</text>
</g>
<!-- 4&#45;&gt;6 -->
<g id="edge7" class="edge">
<title>4&#45;&gt;6</title>
<path fill="none" stroke="#e0ffff" d="M507.26,-176.36C514.96,-171.04 522.35,-164.26 526.84,-156 548.52,-116.15 554.8,-92.52 530.84,-54 526.56,-47.11 520.47,-41.53 513.64,-37.03"/>
<polygon fill="#e0ffff" stroke="#e0ffff" points="515.09,-33.83 504.67,-31.89 511.61,-39.9 515.09,-33.83"/>
<text text-anchor="middle" x="575.84" y="-101.3" font-family="Times,serif" font-size="14.00">Modulates</text>
</g>
<!-- 4&#45;&gt;7 -->
<g id="edge8" class="edge">
<title>4&#45;&gt;7</title>
<path fill="none" stroke="#e0ffff" d="M534.41,-186.73C590.48,-180.23 676.89,-163.9 739.84,-123 765.57,-106.29 772.72,-97.96 782.84,-69 785.77,-60.62 783.18,-52.11 778.49,-44.55"/>
<polygon fill="#e0ffff" stroke="#e0ffff" points="781.03,-42.1 772.25,-36.17 775.42,-46.28 781.03,-42.1"/>
<text text-anchor="middle" x="794.84" y="-101.3" font-family="Times,serif" font-size="14.00">Affects</text>
</g>
<!-- 4&#45;&gt;8 -->
<g id="edge9" class="edge">
<title>4&#45;&gt;8</title>
<path fill="none" stroke="#e0ffff" d="M418.88,-190.25C310.82,-187.57 87.2,-175.65 33.84,-123 11.83,-101.28 11.11,-81.71 24.84,-54 27.18,-49.29 30.49,-45.04 34.27,-41.26"/>
<polygon fill="#e0ffff" stroke="#e0ffff" points="36.73,-43.76 42,-34.57 32.15,-38.47 36.73,-43.76"/>
<text text-anchor="middle" x="62.84" y="-101.3" font-family="Times,serif" font-size="14.00">Modulates</text>
</g>
<!-- 5&#45;&gt;4 -->
<g id="edge13" class="edge">
<title>5&#45;&gt;4</title>
<path fill="none" stroke="#ffdab9" d="M428.86,-116.85C408.73,-125.72 388.09,-139.47 398.84,-156 404.55,-164.77 413,-171.35 422.29,-176.3"/>
<polygon fill="#ffdab9" stroke="#ffdab9" points="420.85,-179.49 431.39,-180.55 423.81,-173.15 420.85,-179.49"/>
<text text-anchor="middle" x="427.34" y="-144.8" font-family="Times,serif" font-size="14.00">Influences</text>
</g>
<!-- 5&#45;&gt;6 -->
<g id="edge10" class="edge">
<title>5&#45;&gt;6</title>
<path fill="none" stroke="#ffdab9" d="M459.84,-86.8C459.84,-75.16 459.84,-59.55 459.84,-46.24"/>
<polygon fill="#ffdab9" stroke="#ffdab9" points="463.34,-46.18 459.84,-36.18 456.34,-46.18 463.34,-46.18"/>
<text text-anchor="middle" x="494.84" y="-57.8" font-family="Times,serif" font-size="14.00">Drives Costs</text>
</g>
<!-- 5&#45;&gt;7 -->
<g id="edge11" class="edge">
<title>5&#45;&gt;7</title>
<path fill="none" stroke="#ffdab9" d="M493.03,-94.34C502.6,-91.75 513.1,-89.09 522.84,-87 572.57,-76.36 589.27,-89.42 635.84,-69 645.7,-64.68 645.43,-59.21 654.84,-54 666.01,-47.82 678.47,-42.39 690.66,-37.76"/>
<polygon fill="#ffdab9" stroke="#ffdab9" points="692.16,-40.94 700.35,-34.22 689.76,-34.36 692.16,-40.94"/>
<text text-anchor="middle" x="690.84" y="-57.8" font-family="Times,serif" font-size="14.00">Erodes Value</text>
</g>
<!-- 5&#45;&gt;8 -->
<g id="edge12" class="edge">
<title>5&#45;&gt;8</title>
<path fill="none" stroke="#ffdab9" d="M424.81,-95.35C411.98,-92.4 397.31,-89.28 383.84,-87 315.03,-75.37 292.35,-95.64 227.84,-69 217.9,-64.89 218.49,-58.76 208.84,-54 187.31,-43.38 162.26,-35.78 139.45,-30.44"/>
<polygon fill="#ffdab9" stroke="#ffdab9" points="140.01,-26.98 129.49,-28.21 138.48,-33.81 140.01,-26.98"/>
<text text-anchor="middle" x="267.34" y="-57.8" font-family="Times,serif" font-size="14.00">Increases Risk</text>
</g>
</g>
</svg>
