<?xml version="1.0" encoding="UTF-8" standalone="no"?>
<!DOCTYPE svg PUBLIC "-//W3C//DTD SVG 1.1//EN"
 "http://www.w3.org/Graphics/SVG/1.1/DTD/svg11.dtd">
<!-- Generated by graphviz version 12.1.0 (20240811.2233)
 -->
<!-- Pages: 1 -->
<svg width="498pt" height="575pt"
 viewBox="0.00 0.00 497.65 575.00" xmlns="http://www.w3.org/2000/svg" xmlns:xlink="http://www.w3.org/1999/xlink">
<g id="graph0" class="graph" transform="scale(1 1) rotate(0) translate(4 571)">
<polygon fill="white" stroke="none" points="-4,4 -4,-571 493.65,-571 493.65,4 -4,4"/>
<!-- 1 -->
<g id="node1" class="node">
<title>1</title>
<ellipse fill="none" stroke="blue" cx="163.73" cy="-549" rx="27.81" ry="18"/>
<text text-anchor="middle" x="163.73" y="-543.95" font-family="Times,serif" font-size="14.00">Cars</text>
</g>
<!-- 3 -->
<g id="node3" class="node">
<title>3</title>
<ellipse fill="none" stroke="red" cx="163.73" cy="-460.5" rx="39.07" ry="18"/>
<text text-anchor="middle" x="163.73" y="-455.45" font-family="Times,serif" font-size="14.00">Wheels</text>
</g>
<!-- 1&#45;&gt;3 -->
<g id="edge1" class="edge">
<title>1&#45;&gt;3</title>
<path fill="none" stroke="black" d="M163.73,-530.91C163.73,-519.26 163.73,-503.55 163.73,-490.02"/>
<polygon fill="black" stroke="black" points="167.23,-490.36 163.73,-480.36 160.23,-490.36 167.23,-490.36"/>
<text text-anchor="middle" x="176.48" y="-499.7" font-family="Times,serif" font-size="14.00">have</text>
</g>
<!-- 4 -->
<g id="node4" class="node">
<title>4</title>
<ellipse fill="none" stroke="orange" cx="67.73" cy="-372" rx="67.73" ry="18"/>
<text text-anchor="middle" x="67.73" y="-366.95" font-family="Times,serif" font-size="14.00">Rubber Wheels</text>
</g>
<!-- 1&#45;&gt;4 -->
<g id="edge5" class="edge">
<title>1&#45;&gt;4</title>
<path fill="none" stroke="black" d="M146.69,-534.29C131.73,-521.39 110.42,-500.76 97.73,-478.5 84.04,-454.49 76.23,-423.8 72.03,-401.72"/>
<polygon fill="black" stroke="black" points="75.49,-401.17 70.32,-391.92 68.59,-402.38 75.49,-401.17"/>
<text text-anchor="middle" x="106.73" y="-455.45" font-family="Times,serif" font-size="14.00">use</text>
</g>
<!-- 2 -->
<g id="node2" class="node">
<title>2</title>
<ellipse fill="none" stroke="green" cx="183.73" cy="-195" rx="34.46" ry="18"/>
<text text-anchor="middle" x="183.73" y="-189.95" font-family="Times,serif" font-size="14.00">Trains</text>
</g>
<!-- 2&#45;&gt;3 -->
<g id="edge2" class="edge">
<title>2&#45;&gt;3</title>
<path fill="none" stroke="black" d="M178.63,-212.95C177.12,-218.63 175.63,-225.04 174.73,-231 163.96,-302.28 162.93,-387.35 163.25,-430.82"/>
<polygon fill="black" stroke="black" points="159.75,-430.71 163.35,-440.67 166.74,-430.63 159.75,-430.71"/>
<text text-anchor="middle" x="178.68" y="-322.7" font-family="Times,serif" font-size="14.00">have</text>
</g>
<!-- 5 -->
<g id="node5" class="node">
<title>5</title>
<ellipse fill="none" stroke="purple" cx="228.73" cy="-106.5" rx="59.03" ry="18"/>
<text text-anchor="middle" x="228.73" y="-101.45" font-family="Times,serif" font-size="14.00">Steel Wheels</text>
</g>
<!-- 2&#45;&gt;5 -->
<g id="edge6" class="edge">
<title>2&#45;&gt;5</title>
<path fill="none" stroke="black" d="M192.41,-177.32C198.67,-165.27 207.28,-148.73 214.54,-134.77"/>
<polygon fill="black" stroke="black" points="217.56,-136.55 219.07,-126.06 211.35,-133.32 217.56,-136.55"/>
<text text-anchor="middle" x="219.26" y="-145.7" font-family="Times,serif" font-size="14.00">use</text>
</g>
<!-- 3&#45;&gt;4 -->
<g id="edge3" class="edge">
<title>3&#45;&gt;4</title>
<path fill="none" stroke="black" d="M146.57,-444.04C132.05,-430.96 111.02,-412.01 94.33,-396.97"/>
<polygon fill="black" stroke="black" points="96.95,-394.62 87.18,-390.52 92.26,-399.82 96.95,-394.62"/>
<text text-anchor="middle" x="135.95" y="-411.2" font-family="Times,serif" font-size="14.00">type</text>
</g>
<!-- 3&#45;&gt;5 -->
<g id="edge4" class="edge">
<title>3&#45;&gt;5</title>
<path fill="none" stroke="black" d="M202.96,-459.77C262.73,-457.91 369.73,-444.57 369.73,-373 369.73,-373 369.73,-373 369.73,-194 369.73,-153.57 327.1,-131.45 288.72,-119.73"/>
<polygon fill="black" stroke="black" points="290.08,-116.48 279.5,-117.1 288.16,-123.21 290.08,-116.48"/>
<text text-anchor="middle" x="381.35" y="-278.45" font-family="Times,serif" font-size="14.00">type</text>
</g>
<!-- 6 -->
<g id="node6" class="node">
<title>6</title>
<ellipse fill="none" stroke="yellow" cx="259.73" cy="-283.5" rx="33.44" ry="18"/>
<text text-anchor="middle" x="259.73" y="-278.45" font-family="Times,serif" font-size="14.00">Speed</text>
</g>
<!-- 4&#45;&gt;6 -->
<g id="edge11" class="edge">
<title>4&#45;&gt;6</title>
<path fill="none" stroke="black" d="M65.73,-353.98C65.4,-342.74 67.05,-328.48 75.73,-319.5 94.57,-300.01 166.94,-291.06 215.1,-287.19"/>
<polygon fill="black" stroke="black" points="215.26,-290.69 224.97,-286.45 214.74,-283.71 215.26,-290.69"/>
<text text-anchor="middle" x="108.73" y="-322.7" font-family="Times,serif" font-size="14.00">limits speed</text>
</g>
<!-- 7 -->
<g id="node7" class="node">
<title>7</title>
<ellipse fill="none" stroke="grey" cx="57.73" cy="-18" rx="40.09" ry="18"/>
<text text-anchor="middle" x="57.73" y="-12.95" font-family="Times,serif" font-size="14.00">Friction</text>
</g>
<!-- 4&#45;&gt;7 -->
<g id="edge7" class="edge">
<title>4&#45;&gt;7</title>
<path fill="none" stroke="black" d="M59.36,-353.89C51.76,-336.76 41.73,-309.43 41.73,-284.5 41.73,-284.5 41.73,-284.5 41.73,-105.5 41.73,-85.65 45.86,-63.65 49.92,-46.81"/>
<polygon fill="black" stroke="black" points="53.2,-48.08 52.29,-37.53 46.42,-46.35 53.2,-48.08"/>
<text text-anchor="middle" x="80.73" y="-189.95" font-family="Times,serif" font-size="14.00">higher friction</text>
</g>
<!-- 5&#45;&gt;6 -->
<g id="edge12" class="edge">
<title>5&#45;&gt;6</title>
<path fill="none" stroke="black" d="M230.53,-124.72C233.88,-148.05 243.25,-189.48 268.73,-213 289.81,-232.46 313.5,-208.06 330.73,-231 343.28,-247.71 321.96,-261.31 299.48,-270.33"/>
<polygon fill="black" stroke="black" points="298.43,-266.98 290.27,-273.74 300.86,-273.55 298.43,-266.98"/>
<text text-anchor="middle" x="312.23" y="-189.95" font-family="Times,serif" font-size="14.00">facilitates speed</text>
</g>
<!-- 5&#45;&gt;7 -->
<g id="edge8" class="edge">
<title>5&#45;&gt;7</title>
<path fill="none" stroke="black" d="M199.33,-90.63C170.08,-75.83 125.13,-53.1 93.75,-37.22"/>
<polygon fill="black" stroke="black" points="95.52,-34.19 85.02,-32.8 92.36,-40.44 95.52,-34.19"/>
<text text-anchor="middle" x="195.67" y="-57.2" font-family="Times,serif" font-size="14.00">lower friction</text>
</g>
<!-- 6&#45;&gt;1 -->
<g id="edge9" class="edge">
<title>6&#45;&gt;1</title>
<path fill="none" stroke="black" d="M284.31,-295.94C328.83,-318.31 415.39,-370.42 383.73,-424.5 344.13,-492.15 252.38,-525.57 200.75,-539.56"/>
<polygon fill="black" stroke="black" points="200.03,-536.13 191.22,-542.03 201.78,-542.9 200.03,-536.13"/>
<text text-anchor="middle" x="439.77" y="-411.2" font-family="Times,serif" font-size="14.00">limited by friction</text>
</g>
<!-- 6&#45;&gt;2 -->
<g id="edge10" class="edge">
<title>6&#45;&gt;2</title>
<path fill="none" stroke="black" d="M228.86,-276.38C212.74,-271.45 194.35,-262.73 184.48,-247.5 180.1,-240.74 178.71,-232.37 178.75,-224.35"/>
<polygon fill="black" stroke="black" points="182.22,-224.84 179.52,-214.6 175.24,-224.29 182.22,-224.84"/>
<text text-anchor="middle" x="257.6" y="-234.2" font-family="Times,serif" font-size="14.00">enhanced by lower friction</text>
</g>
</g>
</svg>
