<?xml version="1.0" encoding="UTF-8" standalone="no"?>
<!DOCTYPE svg PUBLIC "-//W3C//DTD SVG 1.1//EN"
 "http://www.w3.org/Graphics/SVG/1.1/DTD/svg11.dtd">
<!-- Generated by graphviz version 12.1.1 (20240910.0053)
 -->
<!-- Pages: 1 -->
<svg width="924pt" height="310pt"
 viewBox="0.00 0.00 923.90 309.50" xmlns="http://www.w3.org/2000/svg" xmlns:xlink="http://www.w3.org/1999/xlink">
<g id="graph0" class="graph" transform="scale(1 1) rotate(0) translate(4 305.5)">
<polygon fill="white" stroke="none" points="-4,4 -4,-305.5 919.9,-305.5 919.9,4 -4,4"/>
<!-- 1 -->
<g id="node1" class="node">
<title>1</title>
<ellipse fill="none" stroke="blue" cx="450.5" cy="-283.5" rx="27.81" ry="18"/>
<text text-anchor="middle" x="450.5" y="-278.45" font-family="Times,serif" font-size="14.00">Cars</text>
</g>
<!-- 3 -->
<g id="node3" class="node">
<title>3</title>
<ellipse fill="none" stroke="grey" cx="410.5" cy="-195" rx="39.07" ry="18"/>
<text text-anchor="middle" x="410.5" y="-189.95" font-family="Times,serif" font-size="14.00">Wheels</text>
</g>
<!-- 1&#45;&gt;3 -->
<g id="edge1" class="edge">
<title>1&#45;&gt;3</title>
<path fill="none" stroke="black" d="M442.79,-265.82C437.18,-253.69 429.47,-237.02 422.99,-223"/>
<polygon fill="black" stroke="black" points="426.33,-221.9 418.96,-214.3 419.98,-224.84 426.33,-221.9"/>
<text text-anchor="middle" x="446.83" y="-234.2" font-family="Times,serif" font-size="14.00">have</text>
</g>
<!-- 4 -->
<g id="node4" class="node">
<title>4</title>
<ellipse fill="none" stroke="red" cx="172.5" cy="-18" rx="33.44" ry="18"/>
<text text-anchor="middle" x="172.5" y="-12.95" font-family="Times,serif" font-size="14.00">Speed</text>
</g>
<!-- 1&#45;&gt;4 -->
<g id="edge11" class="edge">
<title>1&#45;&gt;4</title>
<path fill="none" stroke="black" d="M428.68,-272.12C379.41,-248.38 261.34,-189.82 229.75,-159 196.72,-126.78 189.31,-114.52 175.5,-70.5 173.21,-63.21 172.12,-55.06 171.67,-47.43"/>
<polygon fill="black" stroke="black" points="175.17,-47.51 171.46,-37.59 168.18,-47.66 175.17,-47.51"/>
<text text-anchor="middle" x="293.12" y="-145.7" font-family="Times,serif" font-size="14.00">speed related to wheels</text>
</g>
<!-- 5 -->
<g id="node5" class="node">
<title>5</title>
<ellipse fill="none" stroke="purple" cx="655.5" cy="-18" rx="40.09" ry="18"/>
<text text-anchor="middle" x="655.5" y="-12.95" font-family="Times,serif" font-size="14.00">Friction</text>
</g>
<!-- 1&#45;&gt;5 -->
<g id="edge13" class="edge">
<title>1&#45;&gt;5</title>
<path fill="none" stroke="black" d="M478.43,-281.05C537.88,-277.6 674.9,-267.66 716.5,-247.5 767.27,-222.9 785.55,-210.97 807.5,-159 832.25,-100.41 749.82,-55.83 696.79,-33.95"/>
<polygon fill="black" stroke="black" points="698.29,-30.78 687.7,-30.32 695.69,-37.28 698.29,-30.78"/>
<text text-anchor="middle" x="863.78" y="-145.7" font-family="Times,serif" font-size="14.00">affected by friction</text>
</g>
<!-- 2 -->
<g id="node2" class="node">
<title>2</title>
<ellipse fill="none" stroke="green" cx="370.5" cy="-283.5" rx="34.46" ry="18"/>
<text text-anchor="middle" x="370.5" y="-278.45" font-family="Times,serif" font-size="14.00">Trains</text>
</g>
<!-- 2&#45;&gt;3 -->
<g id="edge2" class="edge">
<title>2&#45;&gt;3</title>
<path fill="none" stroke="black" d="M378.21,-265.82C383.82,-253.69 391.53,-237.02 398.01,-223"/>
<polygon fill="black" stroke="black" points="401.02,-224.84 402.04,-214.3 394.66,-221.9 401.02,-224.84"/>
<text text-anchor="middle" x="406.83" y="-234.2" font-family="Times,serif" font-size="14.00">have</text>
</g>
<!-- 2&#45;&gt;4 -->
<g id="edge12" class="edge">
<title>2&#45;&gt;4</title>
<path fill="none" stroke="black" d="M335.96,-281.78C290.09,-279.81 207.21,-272.71 141.5,-247.5 74.6,-221.83 40.78,-222.06 6.75,-159 -26.19,-97.96 74.01,-52.3 132.86,-31.47"/>
<polygon fill="black" stroke="black" points="133.92,-34.81 142.24,-28.25 131.65,-28.19 133.92,-34.81"/>
<text text-anchor="middle" x="70.12" y="-145.7" font-family="Times,serif" font-size="14.00">speed related to wheels</text>
</g>
<!-- 2&#45;&gt;5 -->
<g id="edge14" class="edge">
<title>2&#45;&gt;5</title>
<path fill="none" stroke="black" d="M397.29,-271.76C402.65,-269.66 408.24,-267.48 413.5,-265.5 435.6,-257.16 442.84,-258.95 463.5,-247.5 574.79,-185.83 632.91,-184.95 688.5,-70.5 693.18,-60.86 689.04,-50.81 682.31,-42.18"/>
<polygon fill="black" stroke="black" points="684.97,-39.91 675.64,-34.89 679.81,-44.63 684.97,-39.91"/>
<text text-anchor="middle" x="692.79" y="-145.7" font-family="Times,serif" font-size="14.00">affected by friction</text>
</g>
<!-- 6 -->
<g id="node6" class="node">
<title>6</title>
<ellipse fill="none" stroke="orange" cx="470.5" cy="-106.5" rx="67.73" ry="18"/>
<text text-anchor="middle" x="470.5" y="-101.45" font-family="Times,serif" font-size="14.00">Rubber Wheels</text>
</g>
<!-- 3&#45;&gt;6 -->
<g id="edge3" class="edge">
<title>3&#45;&gt;6</title>
<path fill="none" stroke="black" d="M422.07,-177.32C430.65,-164.96 442.5,-147.86 452.34,-133.68"/>
<polygon fill="black" stroke="black" points="455.08,-135.88 457.9,-125.67 449.32,-131.89 455.08,-135.88"/>
<text text-anchor="middle" x="457.5" y="-145.7" font-family="Times,serif" font-size="14.00">type</text>
</g>
<!-- 7 -->
<g id="node7" class="node">
<title>7</title>
<ellipse fill="none" stroke="silver" cx="325.5" cy="-106.5" rx="59.03" ry="18"/>
<text text-anchor="middle" x="325.5" y="-101.45" font-family="Times,serif" font-size="14.00">Steel Wheels</text>
</g>
<!-- 3&#45;&gt;7 -->
<g id="edge4" class="edge">
<title>3&#45;&gt;7</title>
<path fill="none" stroke="black" d="M394.91,-178.13C382.33,-165.33 364.4,-147.09 349.92,-132.35"/>
<polygon fill="black" stroke="black" points="352.43,-129.91 342.92,-125.23 347.43,-134.81 352.43,-129.91"/>
<text text-anchor="middle" x="387.24" y="-145.7" font-family="Times,serif" font-size="14.00">type</text>
</g>
<!-- 6&#45;&gt;4 -->
<g id="edge9" class="edge">
<title>6&#45;&gt;4</title>
<path fill="none" stroke="black" d="M420.46,-94.06C411.5,-92.12 402.23,-90.19 393.5,-88.5 345.94,-79.28 331.16,-88.02 286,-70.5 273.41,-65.62 272.49,-60.19 260.5,-54 244.59,-45.79 226.3,-38.23 210.52,-32.26"/>
<polygon fill="black" stroke="black" points="212.08,-29.1 201.49,-28.91 209.65,-35.67 212.08,-29.1"/>
<text text-anchor="middle" x="321.25" y="-57.2" font-family="Times,serif" font-size="14.00">affects speed</text>
</g>
<!-- 6&#45;&gt;5 -->
<g id="edge5" class="edge">
<title>6&#45;&gt;5</title>
<path fill="none" stroke="black" d="M521.83,-94.4C542.84,-88.78 566.98,-80.91 587.5,-70.5 591.96,-68.24 610.62,-54.04 627.27,-41.12"/>
<polygon fill="black" stroke="black" points="629.28,-44 635.02,-35.09 624.98,-38.48 629.28,-44"/>
<text text-anchor="middle" x="648.49" y="-57.2" font-family="Times,serif" font-size="14.00">higher friction</text>
</g>
<!-- 8 -->
<g id="node8" class="node">
<title>8</title>
<ellipse fill="none" stroke="brown" cx="410.5" cy="-18" rx="42.65" ry="18"/>
<text text-anchor="middle" x="410.5" y="-12.95" font-family="Times,serif" font-size="14.00">Material</text>
</g>
<!-- 6&#45;&gt;8 -->
<g id="edge7" class="edge">
<title>6&#45;&gt;8</title>
<path fill="none" stroke="black" d="M458.21,-88.47C454.14,-82.77 449.6,-76.38 445.5,-70.5 439.79,-62.3 433.64,-53.31 428.11,-45.17"/>
<polygon fill="black" stroke="black" points="431.1,-43.34 422.6,-37.02 425.3,-47.26 431.1,-43.34"/>
<text text-anchor="middle" x="468" y="-57.2" font-family="Times,serif" font-size="14.00">material</text>
</g>
<!-- 7&#45;&gt;4 -->
<g id="edge10" class="edge">
<title>7&#45;&gt;4</title>
<path fill="none" stroke="black" d="M267.47,-102.85C240.93,-98.81 210.84,-89.84 190,-70.5 183.43,-64.41 179.33,-55.76 176.77,-47.28"/>
<polygon fill="black" stroke="black" points="180.18,-46.5 174.48,-37.56 173.36,-48.1 180.18,-46.5"/>
<text text-anchor="middle" x="225.25" y="-57.2" font-family="Times,serif" font-size="14.00">affects speed</text>
</g>
<!-- 7&#45;&gt;5 -->
<g id="edge6" class="edge">
<title>7&#45;&gt;5</title>
<path fill="none" stroke="black" d="M369.3,-94.13C377.33,-92.16 385.65,-90.21 393.5,-88.5 436.34,-79.18 451.07,-89.67 490.5,-70.5 500.48,-65.65 499.39,-59.11 509.25,-54 539.23,-38.46 576.24,-29.69 605.53,-24.81"/>
<polygon fill="black" stroke="black" points="605.91,-28.3 615.26,-23.3 604.84,-21.38 605.91,-28.3"/>
<text text-anchor="middle" x="546.37" y="-57.2" font-family="Times,serif" font-size="14.00">lower friction</text>
</g>
<!-- 7&#45;&gt;8 -->
<g id="edge8" class="edge">
<title>7&#45;&gt;8</title>
<path fill="none" stroke="black" d="M341.89,-88.82C354.63,-75.85 372.49,-57.68 386.79,-43.13"/>
<polygon fill="black" stroke="black" points="389.16,-45.71 393.67,-36.12 384.17,-40.8 389.16,-45.71"/>
<text text-anchor="middle" x="398.11" y="-57.2" font-family="Times,serif" font-size="14.00">material</text>
</g>
</g>
</svg>
